<svg xmlns="http://www.w3.org/2000/svg" width="37" height="14" viewBox="0 0 37 14" fill="none">
  <path d="M32.1696 0C32.1676 0.0179676 32.1635 0.0339895 32.1615 0.0519571C32.1615 0.0579463 32.1595 0.0619547 32.1595 0.0679438C32.1574 0.0819186 32.1554 0.0958856 32.1554 0.10986C32.1554 0.11585 32.1534 0.121808 32.1534 0.127797C32.1513 0.139775 32.1514 0.153738 32.1493 0.165717C32.1493 0.175699 32.1473 0.185708 32.1473 0.193694C32.1473 0.197686 32.1473 0.201644 32.1453 0.207633C32.1392 0.297471 32.1412 0.387329 32.1473 0.477167C32.1554 0.570997 32.1696 0.666805 32.1959 0.756643C32.2385 0.904377 32.3114 1.04414 32.4006 1.17191C32.4249 1.20784 32.4532 1.24179 32.4796 1.27573C32.4917 1.2897 32.5039 1.30372 32.516 1.31969C32.5221 1.32768 32.5282 1.33364 32.5363 1.34162C32.5444 1.34961 32.5525 1.35957 32.5606 1.36755C32.5667 1.37354 32.5728 1.3795 32.5789 1.38549C32.587 1.39347 32.5951 1.40148 32.6032 1.40947C32.6113 1.41745 32.6173 1.42351 32.6254 1.4315C32.6336 1.43949 32.6396 1.4454 32.6477 1.45139C32.6538 1.45738 32.6619 1.46538 32.668 1.47137C32.6761 1.47935 32.6862 1.48736 32.6964 1.49535C32.7024 1.49934 32.7085 1.5053 32.7146 1.50929C32.7247 1.51927 32.7369 1.52728 32.747 1.53727C32.7511 1.54126 32.7571 1.54526 32.7612 1.54926C32.7713 1.55724 32.7835 1.5672 32.7936 1.57519C32.8017 1.58118 32.8118 1.58918 32.82 1.59517C32.8321 1.60515 32.8463 1.61316 32.8584 1.62315C32.8625 1.62714 32.8666 1.62914 32.8726 1.63114C32.8848 1.63913 32.8969 1.64704 32.9091 1.65502C32.9152 1.65902 32.9233 1.66302 32.9294 1.66701C32.9395 1.673 32.9496 1.67901 32.9618 1.687C32.9699 1.69099 32.976 1.69499 32.9841 1.69899C32.9942 1.70498 33.0063 1.71093 33.0165 1.71692C33.0226 1.72092 33.0286 1.72497 33.0367 1.72696C33.0489 1.73295 33.0611 1.73891 33.0732 1.7449C33.0793 1.74889 33.0874 1.75085 33.0935 1.75484C33.1056 1.76083 33.1178 1.76684 33.1279 1.77083C33.134 1.77482 33.1421 1.77688 33.1482 1.78087C33.1664 1.78886 33.1846 1.79677 33.2049 1.80475C33.1765 1.79876 33.1482 1.79281 33.1198 1.78682C32.98 1.75288 32.8443 1.69901 32.7207 1.62714C32.7085 1.61916 32.6964 1.6131 32.6842 1.60511C32.6477 1.58315 32.6113 1.55922 32.5768 1.53327C32.5626 1.52329 32.5505 1.51327 32.5363 1.5013C32.5302 1.4973 32.5241 1.49135 32.5181 1.48736C32.514 1.48336 32.51 1.48141 32.5059 1.47741C32.4998 1.47142 32.4938 1.46542 32.4856 1.46143C32.4836 1.45943 32.4816 1.45738 32.4775 1.45538C32.4715 1.44939 32.4634 1.44338 32.4573 1.4354C32.4451 1.42342 32.433 1.41345 32.4228 1.40148C32.4147 1.39349 32.4066 1.38553 32.3985 1.37555C32.3945 1.36956 32.3884 1.36555 32.3843 1.35956C32.3803 1.35557 32.3762 1.35156 32.3742 1.34757C32.3702 1.34158 32.3641 1.33767 32.36 1.33168C32.358 1.32968 32.356 1.32568 32.3519 1.32369C32.3459 1.3177 32.3398 1.30969 32.3337 1.3037C32.3053 1.27176 32.281 1.23782 32.2567 1.20388C32.2547 1.19989 32.2527 1.19584 32.2486 1.19384C32.2364 1.17787 32.2263 1.1599 32.2162 1.14393C32.1959 1.11199 32.1757 1.07805 32.1574 1.04411C32.1757 1.20582 32.2243 1.3636 32.3033 1.50734C32.3945 1.67304 32.5221 1.81871 32.672 1.9385C32.824 2.06028 32.9982 2.15415 33.1765 2.23601C33.369 2.32584 33.5655 2.4037 33.7621 2.48156C33.9525 2.55942 34.143 2.63723 34.3233 2.73306C34.5563 2.85484 34.7791 3.01064 34.9392 3.21627C34.9514 3.20828 34.9635 3.20227 34.9757 3.19629C35.0223 3.17233 35.0709 3.15031 35.1216 3.13234C35.1195 3.12435 35.1175 3.11439 35.1155 3.10641C35.1135 3.10242 35.1135 3.09646 35.1114 3.09247C35.1094 3.08448 35.1074 3.07452 35.1033 3.06654C35.1013 3.06055 35.0993 3.05654 35.0993 3.05055C35.0972 3.04257 35.0932 3.03261 35.0912 3.02462C35.0891 3.02063 35.0891 3.01662 35.0871 3.01263C35.0831 3.00065 35.077 2.98669 35.0729 2.97471C35.0608 2.94477 35.0486 2.91478 35.0344 2.88484C35.0284 2.87086 35.0203 2.85485 35.0142 2.84087C34.9919 2.79695 34.9696 2.7551 34.9433 2.71317C34.9352 2.6992 34.9271 2.68523 34.9189 2.67126C34.9108 2.65728 34.9027 2.64331 34.8926 2.62934C34.8622 2.58143 34.8298 2.53547 34.7974 2.48955C34.765 2.44363 34.7305 2.39973 34.6941 2.35581C34.6231 2.26797 34.5462 2.18407 34.4671 2.10421C34.4367 2.07427 34.4064 2.04438 34.3739 2.01443C34.3577 2.00046 34.3415 1.98444 34.3273 1.97047C34.2949 1.94252 34.2625 1.91459 34.2301 1.88664C34.2139 1.87266 34.1977 1.85869 34.1815 1.84472C34.149 1.81677 34.1146 1.79079 34.0802 1.76284C34.0457 1.73688 34.0133 1.71095 33.9789 1.683C33.8755 1.60514 33.7722 1.52725 33.6689 1.45139C33.4845 1.31363 33.3021 1.17387 33.1157 1.04012C32.9212 0.898372 32.7186 0.758624 32.5485 0.590926C32.5201 0.562977 32.4938 0.533042 32.4674 0.503096C32.4553 0.489122 32.4411 0.473154 32.4289 0.457183C32.4168 0.441212 32.4046 0.425291 32.3925 0.40932C32.3803 0.393349 32.3702 0.377331 32.358 0.36136C32.2709 0.251558 32.2101 0.12777 32.1696 0ZM35.6017 1.4394C35.4822 1.44139 35.3627 1.47142 35.2573 1.52732C35.1317 1.5932 35.0223 1.69697 34.9595 1.82474C34.9169 1.91058 34.8946 2.00638 34.8845 2.10022C34.8744 2.18606 34.8744 2.27396 34.8845 2.35981C34.921 2.252 34.9737 2.15018 35.0385 2.05635C35.1033 1.96252 35.1844 1.87664 35.2857 1.82074C35.3505 1.7848 35.4234 1.76082 35.4984 1.74685C35.5409 1.73886 35.5835 1.73296 35.6281 1.73096C35.5774 1.709 35.5247 1.69899 35.47 1.69899C35.387 1.70098 35.3019 1.72891 35.237 1.77882C35.2654 1.72891 35.31 1.68697 35.3627 1.65902C35.4153 1.63107 35.4741 1.61915 35.5328 1.62315C35.5896 1.62714 35.6463 1.64706 35.6949 1.67501C35.7355 1.69697 35.7719 1.7249 35.8043 1.75884C35.6787 1.83271 35.5713 1.93852 35.4964 2.0623C35.3728 2.26593 35.3363 2.50947 35.3282 2.74505C35.3242 2.85485 35.3242 2.96668 35.3201 3.07648C35.3566 3.07049 35.393 3.06649 35.4295 3.06449C35.4822 3.0625 35.5349 3.0625 35.5896 3.06849C35.6483 3.07448 35.7051 3.08649 35.7618 3.10046C35.7739 3.03857 35.7841 2.9787 35.7942 2.91681C35.8084 2.83296 35.8205 2.74906 35.8347 2.66521C35.8388 2.64126 35.8428 2.61933 35.8469 2.59737C35.8651 2.50154 35.8894 2.40768 35.9299 2.31984C35.9664 2.23998 36.015 2.1681 36.0758 2.10421C36.0839 2.09423 36.092 2.08627 36.1022 2.07828C36.1204 2.06031 36.1386 2.04434 36.1569 2.02837C36.1751 2.0124 36.1954 1.99643 36.2156 1.98246C36.242 1.9625 36.2683 1.94457 36.2967 1.9266C36.3007 1.92461 36.3027 1.92256 36.3068 1.92056C36.3189 1.91257 36.3331 1.90456 36.3453 1.89658C36.3514 1.89259 36.3554 1.89063 36.3615 1.88664C36.4243 1.8487 36.4891 1.81481 36.556 1.78087C36.5783 1.76889 36.6006 1.75883 36.6249 1.74685C36.6269 1.74485 36.6289 1.74485 36.633 1.74285C36.6411 1.73886 36.6492 1.73491 36.6573 1.73291C36.6715 1.72692 36.6837 1.72096 36.6978 1.71497C36.7161 1.70699 36.7323 1.69898 36.7505 1.69099C36.7728 1.68101 36.7951 1.67105 36.8174 1.66107C36.6715 1.61515 36.5155 1.59913 36.3635 1.61311C36.2865 1.62109 36.2116 1.63706 36.1386 1.65902C36.0211 1.53724 35.859 1.45941 35.6888 1.44144C35.6564 1.44144 35.6301 1.4394 35.6017 1.4394ZM32.6336 2.10421C32.6883 2.19006 32.747 2.27391 32.8078 2.35776C32.8118 2.36175 32.8139 2.3678 32.8179 2.3718C32.8341 2.39575 32.8524 2.41963 32.8706 2.44159C32.8767 2.44958 32.8807 2.45564 32.8868 2.46362C32.8949 2.4736 32.901 2.48352 32.9091 2.4915C32.9192 2.50348 32.9294 2.51754 32.9395 2.52952C32.9496 2.5415 32.9577 2.55341 32.9679 2.56539C32.98 2.58136 32.9922 2.59533 33.0043 2.61131C33.0084 2.61729 33.0144 2.62335 33.0185 2.62934C33.0347 2.6493 33.0529 2.67118 33.0692 2.69114C33.0955 2.72109 33.1218 2.75107 33.1482 2.78102C33.1563 2.791 33.1664 2.80096 33.1745 2.81095C33.211 2.84888 33.2474 2.88682 33.2859 2.92276C33.2961 2.93274 33.3082 2.9427 33.3204 2.95268C33.3325 2.96266 33.3427 2.97263 33.3548 2.98261C33.4014 3.02254 33.4501 3.05848 33.4987 3.09442C33.5108 3.1024 33.523 3.11246 33.5351 3.12045C33.5473 3.12843 33.5595 3.13839 33.5736 3.14638C33.5959 3.16235 33.6202 3.17627 33.6425 3.19024C33.677 3.2122 33.7134 3.23218 33.7499 3.25214C33.7742 3.26612 33.7985 3.27813 33.8229 3.29211C33.8593 3.31207 33.8958 3.33004 33.9343 3.34602C33.9849 3.36997 34.0356 3.38995 34.0862 3.41191C34.1126 3.42189 34.1369 3.43186 34.1632 3.44184C34.1328 3.52768 34.0964 3.61148 34.0498 3.68934C34.0417 3.70332 34.0336 3.71533 34.0275 3.72931C34.0133 3.75326 33.9971 3.77719 33.9809 3.80115C34.0315 3.84707 34.0822 3.89497 34.1308 3.94289C34.1835 3.99479 34.2341 4.04876 34.2828 4.10266C34.3071 4.13061 34.3314 4.15854 34.3557 4.18649C34.38 4.21644 34.4043 4.24642 34.4286 4.27637C34.4246 4.19252 34.4246 4.10667 34.4347 4.02282C34.4489 3.89306 34.4773 3.75726 34.5401 3.62949C34.5887 3.53166 34.6556 3.44381 34.7326 3.36795C34.692 3.30806 34.6414 3.25414 34.5887 3.20623C34.4003 3.03254 34.1855 2.88482 33.9586 2.76503C33.7418 2.65124 33.5129 2.56144 33.29 2.45963C33.0631 2.34982 32.8443 2.23198 32.6336 2.10421Z" fill="#FDAA63"/>
  <path d="M31.1467 1.38159C31.1143 1.57924 31.1062 1.78082 31.1224 1.98246C31.1325 2.10224 31.1507 2.22004 31.1831 2.33583C31.2358 2.52349 31.329 2.69715 31.4425 2.85686C31.6917 3.21022 32.0462 3.48977 32.4515 3.65347C32.1658 3.60156 31.8923 3.48373 31.6593 3.31005C31.4404 3.14634 31.2581 2.93276 31.1305 2.69319C31.1527 2.89682 31.2156 3.09645 31.3148 3.27612C31.4283 3.48575 31.5904 3.66946 31.7788 3.81919C31.9713 3.97291 32.1901 4.09067 32.415 4.19449C32.6561 4.30628 32.9053 4.40407 33.1525 4.50389C33.3916 4.60171 33.6306 4.6996 33.8596 4.82138C34.1635 4.9811 34.4532 5.18267 34.6558 5.45618C34.7531 5.58794 34.83 5.73571 34.8807 5.89143C34.901 5.78562 34.9091 5.67784 34.901 5.57003C34.8908 5.41831 34.8544 5.26853 34.7997 5.12679C34.7409 4.97506 34.6599 4.83129 34.5727 4.69554C34.4188 4.45597 34.2384 4.2344 34.0358 4.03277C33.7299 3.72732 33.3753 3.47376 33.0289 3.21422C32.7959 3.04054 32.5649 2.86483 32.3319 2.69514C32.0037 2.45757 31.6613 2.22399 31.4202 1.90058C31.2986 1.74286 31.2075 1.56726 31.1467 1.38159ZM35.4703 3.19424C35.3204 3.19624 35.1704 3.23423 35.0367 3.3041C34.8767 3.38795 34.7409 3.51769 34.6619 3.6794C34.6092 3.78721 34.5808 3.90704 34.5687 4.02682C34.5565 4.13463 34.5565 4.24436 34.5687 4.35416C34.6153 4.2184 34.6801 4.08865 34.7632 3.97087C34.8463 3.85308 34.9476 3.74532 35.0752 3.67345C35.1583 3.62754 35.2494 3.59755 35.3426 3.57958C35.3953 3.5696 35.45 3.56159 35.5047 3.5596C35.4419 3.53364 35.373 3.51973 35.3062 3.51973C35.2008 3.52172 35.0955 3.55761 35.0124 3.6215C35.0489 3.55761 35.1036 3.50376 35.1704 3.46982C35.2353 3.43588 35.3122 3.41986 35.3852 3.42585C35.4581 3.43184 35.527 3.45582 35.5898 3.49175C35.6405 3.5197 35.6871 3.55564 35.7276 3.59557C35.5696 3.6874 35.4338 3.82119 35.3386 3.97691C35.1826 4.23245 35.138 4.53981 35.1279 4.83727C35.1218 5.01894 35.1259 5.19866 35.1157 5.38034C35.1015 5.64785 35.0529 5.9154 34.9476 6.16096C34.8503 6.38655 34.7085 6.5921 34.5424 6.77577C34.4005 6.93348 34.2405 7.07729 34.0622 7.19308C33.9163 7.28691 33.7583 7.36275 33.5942 7.41865C33.7866 7.3907 33.9771 7.34084 34.1574 7.27097C34.4066 7.17514 34.6416 7.04138 34.8483 6.87169C35.1036 6.66207 35.3122 6.39852 35.446 6.09906C35.5209 5.93136 35.5696 5.75371 35.6121 5.57403C35.6526 5.40234 35.6871 5.23058 35.7154 5.0569C35.7377 4.92314 35.756 4.78738 35.7823 4.65362C35.8046 4.53384 35.835 4.41405 35.8856 4.30425C35.9322 4.20443 35.995 4.11262 36.07 4.03277C36.1551 3.94293 36.2544 3.86703 36.3597 3.80115C36.4914 3.7173 36.6292 3.64546 36.769 3.57958C36.846 3.54364 36.923 3.50775 37 3.47381C36.8156 3.41592 36.6211 3.3959 36.4286 3.41386C36.3334 3.42385 36.2382 3.44382 36.147 3.47177C35.9991 3.31804 35.7945 3.2182 35.5797 3.19824C35.5412 3.19624 35.5047 3.19424 35.4703 3.19424ZM31.7302 4.03072C31.8963 4.28825 32.0807 4.53585 32.2792 4.76943C32.3664 4.87124 32.4555 4.96906 32.5528 5.06089C32.6642 5.16471 32.7878 5.25857 32.9154 5.34242C33.1464 5.49414 33.3976 5.61989 33.659 5.71372C33.5597 6.0012 33.3855 6.26474 33.1606 6.47436C32.9134 6.70394 32.6054 6.86365 32.2813 6.96946C31.9206 7.08725 31.5397 7.14116 31.1609 7.12319C31.4627 7.36076 31.8254 7.52048 32.2063 7.58037C32.5609 7.63627 32.9337 7.6063 33.2599 7.45657C33.4888 7.35076 33.6894 7.19106 33.8697 7.01537C34.0845 6.80575 34.279 6.56621 34.3944 6.29071C34.4309 6.20686 34.4573 6.119 34.4694 6.02917C34.4816 5.93933 34.4775 5.84548 34.4471 5.75963C34.4005 5.62388 34.2992 5.51408 34.1918 5.41426C33.9548 5.19466 33.6853 5.00898 33.3976 4.85726C33.1241 4.71352 32.8364 4.59978 32.5548 4.47201C32.2732 4.34225 31.9976 4.19442 31.7302 4.03072Z" fill="#FF7F41"/>
  <path d="M36.0902 3.62147C36.0254 3.64742 35.9646 3.67741 35.9059 3.71535C35.7559 3.81117 35.604 3.92498 35.5108 4.07671C35.3568 4.33025 35.298 4.63561 35.2859 4.93307C35.2798 5.11474 35.2839 5.29446 35.2737 5.47613C35.2595 5.74365 35.2109 6.0112 35.1056 6.25676C35.0083 6.48235 34.8665 6.68799 34.7003 6.87166C34.6031 6.97947 34.4977 7.07929 34.3843 7.17112C34.5464 7.08927 34.7024 6.99135 34.8422 6.87556C35.0975 6.66594 35.3061 6.40249 35.4399 6.10303C35.5148 5.93533 35.5635 5.75758 35.606 5.5779C35.6465 5.40621 35.681 5.23455 35.7093 5.06087C35.7316 4.92711 35.7498 4.79135 35.7762 4.65759C35.7985 4.53781 35.8289 4.41802 35.8795 4.30822C35.9261 4.2084 35.9889 4.11659 36.0639 4.03674C36.149 3.9469 36.2483 3.87101 36.3536 3.80512C36.4853 3.72128 36.6231 3.64943 36.7629 3.58355C36.8115 3.5596 36.8601 3.53767 36.9088 3.51571C36.8014 3.50173 36.694 3.49973 36.5866 3.51171C36.4914 3.52169 36.384 3.53162 36.2868 3.55957C36.2219 3.57554 36.1551 3.59552 36.0902 3.62147Z" fill="url(#paint0_linear_2522_25329)"/>
  <path d="M31.9103 4.29626C32.0258 4.45997 32.1494 4.61776 32.279 4.77148C32.3662 4.8733 32.4553 4.97111 32.5525 5.06295C32.664 5.16676 32.7876 5.26053 32.9152 5.34437C33.1462 5.4961 33.3974 5.62194 33.6588 5.71577C33.5595 6.00326 33.3853 6.26669 33.1604 6.47632C32.9132 6.7059 32.6052 6.86571 32.281 6.97152C31.9224 7.0893 31.5415 7.14117 31.1647 7.12719C31.1627 7.12719 31.1627 7.12719 31.1606 7.12719C31.4625 7.36476 31.8252 7.52448 32.2061 7.58438C32.2689 7.59436 32.3337 7.60232 32.3986 7.60631C32.5971 7.59034 32.7937 7.54448 32.974 7.46262C33.2029 7.35681 33.4035 7.19711 33.5838 7.02143C33.7986 6.81181 33.9931 6.57216 34.1086 6.29666C34.145 6.21281 34.1734 6.12496 34.1835 6.03512C34.1957 5.94528 34.1916 5.85153 34.1612 5.76568C34.1146 5.62993 34.0133 5.52013 33.906 5.42031C33.6689 5.20071 33.3994 5.01503 33.1117 4.86331C32.8382 4.71957 32.5505 4.60574 32.2689 4.47797C32.1494 4.41808 32.0298 4.35815 31.9103 4.29626Z" fill="url(#paint1_linear_2522_25329)"/>
  <path d="M31.1467 1.38159C31.1244 1.51535 31.1143 1.64902 31.1143 1.78477C31.1244 1.89058 31.1406 1.99645 31.171 2.09827C31.2237 2.28593 31.3169 2.45959 31.4303 2.6193C31.6795 2.97266 32.0341 3.25221 32.4393 3.41591C32.1536 3.364 31.8801 3.24617 31.6471 3.07249C31.6106 3.04454 31.5762 3.01655 31.5418 2.98661C31.7829 3.27808 32.0969 3.50968 32.4494 3.65142C32.1637 3.59952 31.8902 3.48178 31.6572 3.3081C31.4769 3.17434 31.3229 3.00665 31.2034 2.81699C31.2297 2.89285 31.2642 2.96664 31.3027 3.03652C31.4161 3.24614 31.5782 3.42985 31.7666 3.57958C31.9591 3.7333 32.1779 3.85107 32.4028 3.95488C32.6439 4.06668 32.8931 4.16456 33.1403 4.26438C33.3794 4.3622 33.6185 4.46 33.8474 4.58178C34.1513 4.74149 34.441 4.94316 34.6437 5.21667C34.7409 5.34843 34.8179 5.4961 34.8685 5.65182C34.8807 5.58993 34.8888 5.52805 34.8908 5.46417C34.8746 5.34838 34.8442 5.23259 34.7996 5.12279C34.7409 4.97107 34.6599 4.82929 34.5727 4.69154C34.4188 4.45197 34.2384 4.23041 34.0358 4.02877C33.7299 3.72332 33.3753 3.46976 33.0289 3.21023C32.7959 3.03654 32.5649 2.86084 32.3319 2.69114C32.0037 2.45357 31.6613 2.22 31.4202 1.89658C31.2986 1.74286 31.2075 1.56726 31.1467 1.38159Z" fill="url(#paint2_linear_2522_25329)"/>
  <path d="M14.2857 5.37149C14.002 5.37149 13.763 5.27565 13.5705 5.08599C13.378 4.89634 13.2808 4.66075 13.2808 4.38126C13.2808 4.10176 13.378 3.86618 13.5705 3.67652C13.763 3.48687 14.002 3.39105 14.2857 3.39105C14.5612 3.39105 14.7942 3.48687 14.9887 3.67652C15.1812 3.86618 15.2785 4.10176 15.2785 4.38126C15.2785 4.66075 15.1812 4.89634 14.9887 5.08599C14.7942 5.27765 14.5612 5.37149 14.2857 5.37149Z" fill="url(#paint3_linear_2522_25329)"/>
  <path d="M9.85677 3.79834V12.315C9.85677 12.7382 10.0067 13.0976 10.3086 13.395C10.6105 13.6925 10.9752 13.8402 11.4047 13.8402H11.427V5.32357C11.427 4.90832 11.277 4.55296 10.9752 4.2555C10.6733 3.95005 10.3005 3.79834 9.85677 3.79834ZM17.1182 3.79834V12.315C17.1182 12.7382 17.2681 13.0976 17.57 13.395C17.8719 13.6925 18.2366 13.8402 18.6661 13.8402H18.6884V10.3246L19.3671 11.1211L21.227 13.3012C21.4985 13.6186 21.847 13.7963 22.2704 13.8322C22.7 13.8741 23.0849 13.7544 23.4233 13.4729L20.3903 9.91928L23.4233 6.36571C23.1254 6.12015 22.7952 5.99635 22.4285 5.99835C22.3758 5.99835 22.3231 6.00235 22.2704 6.00634C21.847 6.04228 21.4985 6.21997 21.227 6.53739L19.3671 8.71745L18.6884 9.51203V5.32357C18.6884 4.90832 18.5384 4.55296 18.2366 4.2555C17.9347 3.95005 17.5619 3.79834 17.1182 3.79834ZM3.58004 6.23993C2.91955 6.23993 2.31375 6.40363 1.76266 6.72904C1.2217 7.04647 0.790163 7.49366 0.468019 8.07261C0.156006 8.65157 0 9.31637 0 10.067C0 10.8177 0.156006 11.4924 0.468019 12.0894C0.790163 12.6783 1.21968 13.1395 1.76266 13.4729C2.30362 13.7983 2.90131 13.962 3.5537 13.962C4.14126 13.962 4.66398 13.8442 5.1239 13.6086C5.5048 13.413 5.81884 13.1774 6.06602 12.9019C6.11667 12.844 6.25647 12.6823 6.25647 12.6823V12.6803C6.32333 12.9498 6.46717 13.1874 6.67788 13.395C6.97977 13.6925 7.34447 13.8402 7.77399 13.8402H7.79627V7.88896C7.79627 7.47371 7.64635 7.11833 7.34447 6.82087C7.04258 6.51741 6.65763 6.36371 6.21189 6.36371V7.44974C5.94648 7.10636 5.58787 6.82087 5.13808 6.59527C4.6964 6.3577 4.17773 6.23993 3.58004 6.23993ZM28.0184 6.23993C27.2748 6.23993 26.6143 6.39765 26.0349 6.71508C25.4655 7.0325 25.0198 7.48367 24.6997 8.07261C24.3877 8.65157 24.2317 9.32635 24.2317 10.095C24.2317 10.8636 24.3917 11.5424 24.7139 12.1293C25.0441 12.7083 25.4939 13.1614 26.0632 13.4868C26.6406 13.8043 27.293 13.962 28.0184 13.962C28.9098 13.962 29.6514 13.7444 30.2491 13.3112C30.8285 12.8859 31.2358 12.3509 31.4708 11.7021C31.4708 11.7001 31.4728 11.7001 31.4728 11.7001L31.3269 11.6162C31.1223 11.5104 30.9237 11.4565 30.7292 11.4565C30.4456 11.4565 30.1741 11.5703 29.9188 11.7999C29.3799 12.297 28.7234 12.6583 28.0163 12.6603C27.4288 12.6603 26.9324 12.4787 26.5292 12.1173C26.126 11.756 25.9011 11.2768 25.8545 10.6799H31.6511C31.6876 10.4543 31.7058 10.2008 31.7058 9.91928C31.7058 9.19459 31.5498 8.55775 31.2378 8.00674C30.9258 7.44575 30.4902 7.01253 29.9289 6.70508C29.3738 6.39365 28.7356 6.23993 28.0184 6.23993ZM13.4875 6.36171V12.313C13.4875 12.7362 13.6374 13.0956 13.9393 13.393C14.2412 13.6905 14.6059 13.8382 15.0354 13.8382H15.0577V7.88696C15.0577 7.47171 14.9077 7.11636 14.6059 6.81889C14.304 6.51344 13.9312 6.36171 13.4875 6.36171ZM27.9495 7.54159C28.5472 7.54159 29.0456 7.71327 29.4508 8.05665C29.854 8.40003 30.0606 8.8572 30.0708 9.42618H25.8708C25.9437 8.84722 26.1726 8.39005 26.5596 8.05665C26.9446 7.71527 27.4085 7.54159 27.9495 7.54159ZM3.91029 7.5835C4.31348 7.5835 4.69033 7.68332 5.03881 7.88296C5.38729 8.0826 5.66688 8.37208 5.87962 8.75139C6.09843 9.13071 6.20987 9.5759 6.20987 10.091V10.099C6.20987 10.612 6.09843 11.0632 5.87962 11.4505C5.66891 11.8298 5.38932 12.1193 5.03881 12.319C4.69033 12.5186 4.31348 12.6164 3.91029 12.6164C3.51521 12.6164 3.13836 12.5166 2.78178 12.319C2.43329 12.1113 2.14761 11.8119 1.9288 11.4226C1.71809 11.0333 1.61274 10.5821 1.61274 10.065C1.61274 9.54994 1.71809 9.10676 1.9288 8.73543C2.14964 8.35611 2.43329 8.07062 2.78178 7.88097C3.13026 7.68332 3.50711 7.5835 3.91029 7.5835Z" fill="#1A1A1A"/>
  <defs>
    <linearGradient id="paint0_linear_2522_25329" x1="34.2911" y1="4.11875" x2="37.6374" y2="6.35012" gradientUnits="userSpaceOnUse">
      <stop stop-color="#FF7F41"/>
      <stop offset="1" stop-color="#F8485E"/>
    </linearGradient>
    <linearGradient id="paint1_linear_2522_25329" x1="31.0488" y1="4.85127" x2="34.297" y2="7.73078" gradientUnits="userSpaceOnUse">
      <stop stop-color="#FF7F41"/>
      <stop offset="1" stop-color="#F8485E"/>
    </linearGradient>
    <linearGradient id="paint2_linear_2522_25329" x1="30.9749" y1="2.0976" x2="35.1457" y2="5.67072" gradientUnits="userSpaceOnUse">
      <stop stop-color="#FF7F41"/>
      <stop offset="1" stop-color="#F8485E"/>
    </linearGradient>
    <linearGradient id="paint3_linear_2522_25329" x1="13.207" y1="3.72312" x2="15.164" y2="5.63534" gradientUnits="userSpaceOnUse">
      <stop stop-color="#FF7F41"/>
      <stop offset="1" stop-color="#F8485E"/>
    </linearGradient>
  </defs>
</svg>