<svg width="75" height="29" viewBox="0 0 75 29" fill="none" xmlns="http://www.w3.org/2000/svg">
<mask id="mask0_19_157" style="mask-type:luminance" maskUnits="userSpaceOnUse" x="0" y="0" width="75" height="29">
<path d="M75 0H0V29H75V0Z" fill="white"/>
</mask>
<g mask="url(#mask0_19_157)">
<mask id="mask1_19_157" style="mask-type:luminance" maskUnits="userSpaceOnUse" x="-6" y="-6" width="86" height="40">
<path d="M80 -6H-5.5V33.68H80V-6Z" fill="white"/>
</mask>
<g mask="url(#mask1_19_157)">
<mask id="mask2_19_157" style="mask-type:luminance" maskUnits="userSpaceOnUse" x="0" y="0" width="75" height="29">
<path d="M21.68 26.03V27.39C21.68 28.14 22.29 28.75 23.04 28.75C23.79 28.75 24.4 28.14 24.4 27.39C24.4 26.64 23.79 26.03 23.04 26.03H21.68ZM25.32 26.03V27.39C25.32 28.14 25.93 28.75 26.68 28.75C27.43 28.75 28.04 28.14 28.04 27.39C28.04 26.64 27.43 26.03 26.68 26.03H25.32ZM52.05 16.32V25.07H54.51C55.87 25.07 56.98 23.96 56.98 22.6V16.31H52.05V16.32ZM40.85 16.28V17.64C40.85 18.39 41.46 19 42.21 19C42.96 19 43.57 18.39 43.57 17.64C43.57 16.89 42.96 16.28 42.21 16.28H40.85ZM62 16.32H61.91V22.61C61.91 23.97 63.01 25.08 64.37 25.08H66.84V13.77C65.76 15.29 63.99 16.29 62 16.32ZM48.2 13.83C47.05 14.98 45.63 15.76 44.09 16.11C44.44 16.54 44.65 17.08 44.65 17.68C44.65 19.04 43.55 20.15 42.19 20.15C40.83 20.15 39.72 19.05 39.72 17.68V16.32H34.79V22.61C34.79 23.97 35.89 25.08 37.26 25.08H42.19C46.27 25.08 49.59 21.77 49.59 17.68C49.59 16.19 49.15 14.8 48.39 13.64C48.33 13.7 48.27 13.77 48.21 13.83M5.20002 5.35003H7.67002C9.03002 5.35003 10.14 6.45003 10.14 7.82003V17.68C10.14 19.04 9.04002 20.14 7.68002 20.15H5.21002V5.36003L5.20002 5.35003ZM0.27002 0.420034V25.08H7.67002H10.14C12.86 25.08 15.07 22.87 15.07 20.15V5.36003C15.07 2.64003 12.86 0.430034 10.14 0.430034H0.27002V0.420034ZM20 0.420034C18.64 0.420034 17.54 1.52003 17.54 2.89003V9.18003H20C20.96 9.18003 21.82 9.56003 22.47 10.17V0.420034H20ZM27.39 0.420034V10.16C28.03 9.55003 28.9 9.17003 29.86 9.17003H32.32V2.88003C32.32 1.52003 31.22 0.410034 29.86 0.410034H27.39V0.420034ZM34.79 0.420034V9.17003H39.72V7.81003C39.72 6.85003 40.27 6.01003 41.08 5.61003V0.410034H34.79V0.420034ZM42.19 5.35003C43.55 5.35003 44.65 6.45003 44.65 7.82003C44.65 9.19003 43.55 10.28 42.19 10.28H29.86C28.5 10.28 27.39 11.39 27.39 12.75V20.15H24.92C23.56 20.15 22.46 19.05 22.46 17.69V12.76C22.46 11.4 21.35 10.29 19.99 10.29H17.53V20.15C17.53 22.87 19.74 25.08 22.46 25.08H25.42H27.39C30.11 25.08 32.32 22.87 32.32 20.15V15.22H42.18C46.26 15.22 49.58 11.91 49.58 7.82003C49.58 3.73003 46.27 0.420034 42.18 0.420034V5.35003H42.19ZM56.98 0.420034C54.26 0.420034 52.05 2.63003 52.05 5.35003V10.16C52.69 9.55003 53.56 9.17003 54.51 9.17003H56.98V6.46003V2.89003C56.98 1.94003 57.36 1.07003 57.97 0.420034H56.98ZM60.55 0.420034C59.19 0.420034 58.08 1.52003 58.08 2.89003V5.35003H59.44C60.8 5.35003 61.91 6.46003 61.91 7.82003C61.91 8.50003 61.63 9.12003 61.19 9.56003C60.74 10.01 60.13 10.28 59.45 10.28H54.52C53.67 10.28 52.92 10.71 52.48 11.37C52.21 11.76 52.06 12.24 52.06 12.75V15.21H61.92C64.64 15.21 66.85 13 66.85 10.28V5.35003C66.85 2.63003 64.64 0.420034 61.92 0.420034H60.56H60.55ZM71.77 0.420034C70.41 0.420034 69.3 1.52003 69.3 2.89003V25.08H71.77C73.13 25.08 74.23 23.97 74.23 22.61V0.420034H71.77Z" fill="white"/>
</mask>
<g mask="url(#mask2_19_157)">
<path d="M15.52 0.420044H0.27002V25.08H15.52V0.420044Z" fill="#C8102E"/>
<path d="M74.24 16.86H15.52V25.08H74.24V16.86Z" fill="black"/>
<path d="M74.24 8.64001H15.52V16.86H74.24V8.64001Z" fill="#E1E1E1"/>
<path d="M74.24 0.420044H15.52V8.64004H74.24V0.420044Z" fill="#00843D"/>
</g>
<mask id="mask3_19_157" style="mask-type:luminance" maskUnits="userSpaceOnUse" x="-6" y="-6" width="86" height="40">
<path d="M80 -6H-5.5V33.68H80V-6Z" fill="white"/>
</mask>
<g mask="url(#mask3_19_157)">
<path d="M10.13 0.420044H5.20002H0.27002V25.08H7.67002H10.14C12.86 25.08 15.07 22.87 15.07 20.15V5.36004C15.07 2.64004 12.86 0.430044 10.14 0.430044M5.20002 20.15V5.36004H7.67002C9.03002 5.36004 10.14 6.46004 10.14 7.83004V17.69C10.14 19.05 9.04002 20.15 7.68002 20.16H5.21002L5.20002 20.15Z" stroke="black" stroke-width="0.15" stroke-miterlimit="10"/>
<path d="M74.2401 22.61V0.420044H71.7801C70.4201 0.420044 69.3101 1.52004 69.3101 2.89004V25.08H71.7801C73.1401 25.08 74.2401 23.97 74.2401 22.61Z" stroke="black" stroke-width="0.15" stroke-miterlimit="10"/>
<path d="M49.58 17.68C49.58 16.19 49.14 14.8 48.38 13.64C48.32 13.7 48.26 13.77 48.2 13.83C47.05 14.98 45.63 15.76 44.09 16.11C44.44 16.54 44.65 17.08 44.65 17.68C44.65 19.04 43.55 20.15 42.19 20.15C40.83 20.15 39.72 19.05 39.72 17.68V16.32H34.79V22.61C34.79 23.97 35.89 25.08 37.26 25.08H42.19C46.27 25.08 49.59 21.77 49.59 17.68" stroke="black" stroke-width="0.15" stroke-miterlimit="10"/>
<path d="M39.72 7.82004C39.72 6.86004 40.27 6.02004 41.08 5.62004V0.420044H34.79V9.17004H39.72V7.81004V7.82004Z" stroke="black" stroke-width="0.15" stroke-miterlimit="10"/>
<path d="M22.46 10.16V0.420044H19.99C18.63 0.420044 17.53 1.52004 17.53 2.89004V9.18004H19.99C20.95 9.18004 21.81 9.56004 22.46 10.17" stroke="black" stroke-width="0.15" stroke-miterlimit="10"/>
<path d="M32.32 9.17003V2.88003C32.32 1.52003 31.22 0.410034 29.86 0.410034H27.39V10.15C28.03 9.54003 28.9 9.16003 29.86 9.16003H32.32V9.17003Z" stroke="black" stroke-width="0.15" stroke-miterlimit="10"/>
<path d="M52.05 25.0801H54.51C55.87 25.0801 56.98 23.9701 56.98 22.6101V16.3201H52.05V25.0701V25.0801Z" stroke="black" stroke-width="0.15" stroke-miterlimit="10"/>
<path d="M56.98 9.18004V6.46004V2.89004C56.98 1.94004 57.3601 1.07004 57.9701 0.420044H56.98C54.26 0.420044 52.05 2.63004 52.05 5.35004V10.16C52.69 9.55004 53.56 9.17004 54.51 9.17004H56.98V9.18004Z" stroke="black" stroke-width="0.15" stroke-miterlimit="10"/>
<path d="M61.91 16.32V22.61C61.91 23.97 63.01 25.08 64.37 25.08H66.84V13.77C65.76 15.29 63.99 16.29 62 16.32H61.91Z" stroke="black" stroke-width="0.15" stroke-miterlimit="10"/>
<path d="M25.42 25.08H27.39C30.11 25.08 32.32 22.87 32.32 20.15V15.22H42.18C46.26 15.22 49.58 11.91 49.58 7.82004C49.58 3.73004 46.27 0.420044 42.18 0.420044V5.35004C43.54 5.35004 44.64 6.45004 44.64 7.82004C44.64 9.19004 43.54 10.28 42.18 10.28H29.85C28.49 10.28 27.38 11.39 27.38 12.75V20.15H24.91C23.55 20.15 22.45 19.05 22.45 17.69V12.76C22.45 11.4 21.34 10.29 19.98 10.29H17.52V20.15C17.52 22.87 19.73 25.08 22.45 25.08H25.41H25.42Z" stroke="black" stroke-width="0.15" stroke-miterlimit="10"/>
<path d="M40.85 16.28V17.64C40.85 18.39 41.46 19 42.21 19C42.96 19 43.57 18.39 43.57 17.64C43.57 16.89 42.96 16.28 42.21 16.28H40.85Z" stroke="black" stroke-width="0.15" stroke-miterlimit="10"/>
<path d="M28.0301 27.39C28.0301 26.64 27.4201 26.03 26.6701 26.03H25.3101V27.39C25.3101 28.14 25.9201 28.75 26.6701 28.75C27.4201 28.75 28.0301 28.14 28.0301 27.39Z" fill="black"/>
<path d="M28.0301 27.39C28.0301 26.64 27.4201 26.03 26.6701 26.03H25.3101V27.39C25.3101 28.14 25.9201 28.75 26.6701 28.75C27.4201 28.75 28.0301 28.14 28.0301 27.39Z" stroke="black" stroke-width="0.15" stroke-miterlimit="10"/>
<path d="M24.39 27.39C24.39 26.64 23.78 26.03 23.03 26.03H21.67V27.39C21.67 28.14 22.28 28.75 23.03 28.75C23.78 28.75 24.39 28.14 24.39 27.39Z" fill="black"/>
<path d="M24.39 27.39C24.39 26.64 23.78 26.03 23.03 26.03H21.67V27.39C21.67 28.14 22.28 28.75 23.03 28.75C23.78 28.75 24.39 28.14 24.39 27.39Z" stroke="black" stroke-width="0.15" stroke-miterlimit="10"/>
<path d="M61.9101 7.82004C61.9101 8.50004 61.6301 9.12004 61.1901 9.56004C60.7401 10.01 60.1301 10.28 59.4501 10.28H54.5201C53.6701 10.28 52.9201 10.71 52.4801 11.37C52.2101 11.76 52.0601 12.24 52.0601 12.75V15.21H61.9201C64.6401 15.21 66.8501 13 66.8501 10.28V5.35004C66.8501 2.63004 64.6401 0.420044 61.9201 0.420044H60.5601C59.2001 0.420044 58.0901 1.52004 58.0901 2.89004V5.35004H59.4501C60.8101 5.35004 61.9201 6.46004 61.9201 7.82004" stroke="black" stroke-width="0.15" stroke-miterlimit="10"/>
</g>
</g>
</g>
</svg>
