<svg viewBox="0 0 95 35" fill="none" xmlns="http://www.w3.org/2000/svg">
<path d="M0.12 0V5.96L8.39 8.76V25.78L0.12 28.58L0 34.54L13.62 29.92V4.62L0.12 0Z" fill="black"/>
<path d="M5.23 23.35L0 25.05V9.49L5.23 11.19V23.35Z" fill="#0A19FE"/>
<path d="M22.26 19.58C21.9 19.22 21.41 19.09 20.8 19.09H18.73V24.68H20.8C21.41 24.68 21.89 24.56 22.26 24.19C22.87 23.58 22.87 22.73 22.87 21.88C22.87 21.03 22.87 20.3 22.26 19.69V19.57V19.58ZM21.53 23.35C21.29 23.59 21.04 23.71 20.68 23.71H19.83V20.06H20.68C21.04 20.06 21.29 20.06 21.53 20.42C21.77 20.66 21.77 21.03 21.77 21.88C21.77 22.73 21.77 23.1 21.53 23.34V23.35Z" fill="black"/>
<path d="M26.88 18.97V22.62C26.88 23.23 26.52 23.59 25.91 23.59C25.3 23.59 24.94 23.23 24.94 22.62V18.97H23.85V22.62C23.85 23.84 24.7 24.57 25.92 24.57C27.14 24.57 27.99 23.84 27.99 22.62V18.97H26.88Z" fill="black"/>
<path d="M32.47 21.77C32.71 21.65 33.2 21.28 33.2 20.68C33.2 19.71 32.59 19.1 31.5 19.1H29.31V24.69H31.62C32.59 24.69 33.32 24.08 33.32 23.11C33.32 22.14 32.83 22.02 32.59 21.89L32.47 21.77ZM30.28 20.07H31.37C31.86 20.07 32.1 20.31 32.1 20.68C32.1 21.05 31.86 21.29 31.37 21.29H30.28V19.95V20.07ZM31.5 23.59H30.41V22.25H31.5C31.99 22.25 32.23 22.61 32.23 22.98C32.23 23.35 31.99 23.71 31.5 23.71V23.59Z" fill="black"/>
<path d="M36.61 18.97H35.76L33.69 24.56H34.78L35.14 23.59H37.09L37.45 24.56H38.54L36.47 18.97H36.61ZM35.51 22.74L36.24 20.67L36.97 22.74H35.51Z" fill="black"/>
<path d="M39.41 18.97V24.56H40.5V18.97H39.41Z" fill="black"/>
<path d="M47.19 20.07V19.1H43.54V24.69H44.63V22.38H46.82V21.41H44.63V20.07H47.19Z" fill="black"/>
<path d="M51.32 19.58C50.96 19.22 50.47 18.97 49.86 18.97C49.25 18.97 48.77 19.21 48.4 19.58C47.79 20.19 47.79 20.8 47.79 21.77C47.79 22.74 47.79 23.47 48.4 23.96C48.76 24.32 49.25 24.57 49.86 24.57C50.47 24.57 50.95 24.33 51.32 23.96C51.93 23.35 51.93 22.74 51.93 21.77C51.93 20.8 51.93 20.07 51.32 19.58ZM50.47 23.47C50.35 23.59 50.11 23.71 49.74 23.71C49.37 23.71 49.13 23.71 49.01 23.47C48.77 23.23 48.77 22.98 48.77 21.89C48.77 20.8 48.77 20.55 49.01 20.31C49.13 20.19 49.37 20.07 49.74 20.07C50.11 20.07 50.23 20.07 50.47 20.31C50.71 20.55 50.71 20.8 50.71 21.89C50.71 22.98 50.71 23.23 50.47 23.47Z" fill="black"/>
<path d="M55.95 19.09V22.74C55.95 23.35 55.59 23.71 54.98 23.71C54.37 23.71 54.01 23.35 54.01 22.74V19.09H52.92V22.74C52.92 23.96 53.89 24.69 54.99 24.69C56.09 24.69 57.06 23.96 57.06 22.74V19.09H55.95Z" fill="black"/>
<path d="M61.42 19.09V22.5L59.23 19.09H58.26V24.68H59.35V21.27L61.54 24.68H62.51V19.09H61.42Z" fill="black"/>
<path d="M67.38 19.58C67.02 19.22 66.53 19.09 65.92 19.09H63.85V24.68H65.92C66.53 24.68 67.01 24.56 67.38 24.19C67.99 23.58 67.99 22.73 67.99 21.88C67.99 21.03 67.99 20.3 67.38 19.69V19.57V19.58ZM66.53 23.35C66.29 23.59 66.04 23.71 65.68 23.71H64.83V20.06H65.68C66.04 20.06 66.29 20.06 66.53 20.42C66.77 20.66 66.77 21.03 66.77 21.88C66.77 22.73 66.77 23.1 66.53 23.34V23.35Z" fill="black"/>
<path d="M72.73 20.07V19.1H69.08V24.69H72.73V23.72H70.18V22.38H72.37V21.41H70.18V20.07H72.73Z" fill="black"/>
<path d="M76.74 22.26C77.23 22.02 77.71 21.53 77.71 20.8C77.71 20.07 76.98 19.1 75.89 19.1H73.7V24.69H74.79V22.5H75.52L76.61 24.69H77.83L76.61 22.26H76.74ZM75.89 21.53H74.92V20.07H75.89C76.38 20.07 76.74 20.43 76.74 20.8C76.74 21.17 76.38 21.53 75.89 21.53Z" fill="black"/>
<path d="M82.09 21.77C81.85 21.53 81.48 21.41 81 21.28H80.39C80.15 21.16 80.03 21.04 79.9 20.92C79.9 20.92 79.78 20.68 79.78 20.56C79.78 20.2 80.02 19.83 80.63 19.83C81.24 19.83 81.48 19.83 81.72 20.19L82.45 19.46C81.96 18.97 81.36 18.85 80.63 18.85C79.41 18.85 78.68 19.58 78.68 20.55C78.68 21.52 78.8 21.4 79.04 21.64C79.28 21.88 79.65 22 80.13 22.13H80.86C81.1 22.25 81.22 22.37 81.35 22.37C81.35 22.37 81.47 22.61 81.47 22.86C81.47 23.35 81.11 23.59 80.5 23.59C79.89 23.59 79.53 23.59 79.16 23.1L78.43 23.83C79.04 24.44 79.65 24.56 80.5 24.56C81.35 24.56 82.57 23.95 82.57 22.86C82.57 21.77 82.45 22.01 82.08 21.64V21.76L82.09 21.77Z" fill="black"/>
<path d="M88.05 24.69V22.38H86.1V24.69H85.01V19.1H86.1V21.41H88.05V19.1H89.14V24.69H88.05Z" fill="black"/>
<path d="M94.01 24.93L93.52 24.44C93.16 24.68 92.79 24.8 92.43 24.8C91.82 24.8 91.34 24.56 90.97 24.19C90.36 23.58 90.36 22.97 90.36 22C90.36 21.03 90.36 20.3 90.97 19.81C91.33 19.45 91.82 19.2 92.43 19.2C93.04 19.2 93.52 19.44 93.89 19.81C94.5 20.42 94.5 21.03 94.5 22C94.5 22.97 94.5 23.46 94.14 23.95L94.63 24.44L94.02 25.05V24.93H94.01ZM93.04 20.31C92.92 20.19 92.68 20.07 92.31 20.07C91.94 20.07 91.7 20.07 91.58 20.31C91.34 20.55 91.34 20.8 91.34 21.89C91.34 22.98 91.34 23.23 91.58 23.47C91.7 23.59 91.94 23.71 92.31 23.71H92.67L92.18 23.22L92.79 22.61L93.15 22.97V21.88C93.15 20.79 93.15 20.54 92.91 20.3H93.03L93.04 20.31Z" fill="black"/>
<path d="M87.44 8.15H86.47V9.12H87.44V8.15Z" fill="black"/>
<path d="M88.66 8.15H87.69V9.12H88.66V8.15Z" fill="black"/>
<path d="M94.26 10.82C94.26 10.58 94.02 10.33 93.9 10.21C93.78 10.09 93.54 9.97 93.29 9.85H91.83C91.59 9.85 91.47 9.97 91.22 10.21C91.1 10.33 90.98 10.57 90.86 10.82C90.86 11.06 90.74 11.31 90.74 11.67V12.28C90.74 12.28 90.74 12.52 90.62 12.52L90.5 12.64H88.68C88.92 12.52 89.04 12.28 89.17 12.03C89.3 11.78 89.41 11.54 89.41 11.3C89.41 10.81 89.29 10.45 88.92 10.21C88.55 9.97 88.19 9.72 87.58 9.72C86.97 9.72 86.49 9.84 86.24 10.21C85.88 10.45 85.75 10.82 85.75 11.3C85.75 11.78 85.75 11.91 85.99 12.03C86.11 12.27 86.35 12.52 86.48 12.64H79.79C79.55 12.64 79.43 12.64 79.3 12.52C79.18 12.52 79.06 12.28 79.06 12.16V9.97H78.09V14.23C78.09 14.23 78.09 14.47 77.85 14.47H77.24V15.32H78.33C78.57 15.32 78.69 15.08 78.82 14.96C78.82 14.84 79.06 14.6 79.06 14.35V13.5H86.97C87.21 13.5 87.46 13.5 87.58 13.26C87.7 13.26 87.94 13.38 88.07 13.5H90.75C90.75 13.5 90.87 13.5 90.99 13.38C90.99 13.38 91.11 13.26 91.23 13.14C91.35 13.38 91.59 13.5 91.84 13.5H93.42C93.66 13.5 93.78 13.38 94.03 13.14C94.15 13.02 94.27 12.78 94.39 12.53C94.39 12.29 94.51 12.04 94.51 11.68C94.51 11.32 94.51 11.07 94.39 10.71L94.27 10.83L94.26 10.82ZM88.05 12.16C87.93 12.4 87.69 12.52 87.44 12.65C87.2 12.65 86.95 12.41 86.83 12.16C86.71 11.91 86.59 11.67 86.59 11.43C86.59 11.19 86.59 10.94 86.83 10.82C86.95 10.7 87.19 10.58 87.44 10.58C87.69 10.58 87.8 10.58 88.05 10.82C88.17 10.94 88.29 11.18 88.29 11.43C88.29 11.68 88.29 11.92 88.05 12.16ZM93.16 12.53C93.04 12.65 92.8 12.77 92.55 12.77C92.3 12.77 92.06 12.77 91.94 12.53C91.82 12.41 91.7 12.04 91.7 11.68C91.7 11.32 91.7 11.07 91.94 10.95C92.06 10.83 92.3 10.71 92.55 10.71C93.16 10.71 93.4 11.07 93.4 11.8C93.4 12.53 93.4 12.41 93.16 12.65V12.53Z" fill="black"/>
<path d="M32.23 14.35H31.26V15.32H32.23V14.35Z" fill="black"/>
<path d="M31.38 12.16V12.52H23.96C23.84 12.52 23.6 12.52 23.47 12.4C23.47 12.4 23.11 12.28 22.86 12.16L22.37 11.92L22.13 12.77L22.49 12.89C22.61 12.89 22.73 12.89 22.85 13.01C23.09 13.01 23.21 13.13 23.34 13.25C23.46 13.25 23.58 13.37 23.7 13.49V13.73C23.7 13.85 23.7 13.97 23.46 14.09C23.34 14.09 23.1 14.21 22.73 14.21H20.54C20.42 14.21 20.18 14.21 20.05 13.97C19.93 13.97 19.81 13.73 19.69 13.61V12.39C19.69 12.15 19.81 12.03 19.93 11.78L19.08 11.29C19.08 11.29 18.96 11.53 18.84 11.65C18.84 11.77 18.72 11.89 18.72 12.14V12.99C18.72 13.6 18.96 14.08 19.33 14.45C19.69 14.81 20.3 14.94 21.03 14.94H23.83C24.07 14.94 24.19 14.82 24.32 14.7C24.44 14.7 24.56 14.46 24.68 14.34V13.25H31.37C31.73 13.25 31.98 13.25 32.1 13.01C32.22 12.89 32.34 12.52 32.34 12.16V9.61H31.37V12.16H31.38Z" fill="black"/>
<path d="M35.27 9.73H33.81V10.58H34.9C35.51 10.58 35.75 10.82 35.75 11.31V12.53H33.44V13.38H36.24C36.36 13.38 36.48 13.26 36.6 13.14C36.6 13.14 36.84 12.9 36.84 12.65V11.19C36.84 10.7 36.72 10.22 36.48 9.97C36.24 9.73 35.87 9.61 35.39 9.61L35.27 9.73Z" fill="black"/>
<path d="M22.98 15.93H22.01V16.9H22.98V15.93Z" fill="black"/>
<path d="M21.77 15.93H20.8V16.9H21.77V15.93Z" fill="black"/>
<path d="M42.44 15.93H41.47V16.9H42.44V15.93Z" fill="black"/>
<path d="M43.54 15.93H42.57V16.9H43.54V15.93Z" fill="black"/>
<path d="M64.09 9.97V12.65L63.85 12.77H63.49C63.37 12.77 63.13 12.77 63 12.65C63 12.65 62.88 12.41 62.88 12.29V10.71H61.91V12.78H61.42C60.93 12.78 60.81 12.66 60.81 12.29V10.71H59.84V12.66C59.84 12.66 59.72 12.78 59.48 12.78H58.63C58.39 12.78 58.27 12.78 58.14 12.66C58.02 12.66 57.9 12.42 57.9 12.3V10.11H56.93V12.79L56.69 12.91H56.33C56.21 12.91 55.97 12.91 55.84 12.79C55.84 12.79 55.72 12.55 55.72 12.43V10.85H54.75V12.8L54.51 12.92H54.15C53.91 12.92 53.79 12.92 53.66 12.8C53.66 12.8 53.54 12.56 53.54 12.44V10.86H52.57V12.68C52.57 12.68 52.57 12.8 52.45 12.8H44.79C44.67 12.8 44.43 12.8 44.3 12.68C44.3 12.68 43.94 12.56 43.69 12.44L43.2 12.2L42.96 13.05L43.32 13.17C43.44 13.17 43.56 13.17 43.68 13.29C43.92 13.29 44.04 13.41 44.17 13.53C44.29 13.53 44.41 13.65 44.53 13.77V14.01C44.53 14.13 44.53 14.25 44.29 14.37C44.17 14.37 43.93 14.49 43.56 14.49H41.37C41.25 14.49 41.01 14.49 40.88 14.25C40.76 14.25 40.64 14.01 40.52 13.89V12.67C40.52 12.43 40.64 12.31 40.76 12.06L39.91 11.57C39.91 11.57 39.79 11.81 39.67 11.93C39.67 12.05 39.55 12.17 39.55 12.42V13.27C39.55 13.88 39.79 14.36 40.16 14.73C40.53 15.1 41.13 15.22 41.86 15.22H44.66C44.9 15.22 45.02 15.1 45.15 14.98C45.27 14.98 45.39 14.74 45.51 14.62V13.53H52.93C53.05 13.53 53.17 13.29 53.29 13.17C53.41 13.53 53.78 13.66 54.14 13.66H55.11C55.23 13.66 55.35 13.42 55.47 13.3C55.47 13.42 55.71 13.54 55.83 13.66H57.29C57.41 13.66 57.53 13.42 57.65 13.3C57.65 13.54 57.89 13.66 58.01 13.66H60.2C60.32 13.66 60.44 13.42 60.56 13.3C60.68 13.66 61.05 13.79 61.41 13.79H62.38C62.5 13.79 62.62 13.55 62.74 13.43C62.74 13.55 62.98 13.67 63.1 13.79H63.95C64.31 13.79 64.68 13.79 64.8 13.55C64.92 13.43 65.04 13.06 65.04 12.7V10.15H64.07V10.03L64.09 9.97Z" fill="black"/>
<path d="M74.31 10.22C74.19 10.1 73.95 9.98 73.7 9.86H72.24C72 9.86 71.88 9.98 71.63 10.22C71.51 10.34 71.39 10.58 71.27 10.83C71.27 11.07 71.15 11.32 71.15 11.68V12.29C71.15 12.29 71.15 12.53 71.03 12.53L70.91 12.65H69.69V11.68C69.69 11.32 69.69 11.07 69.57 10.83C69.57 10.59 69.33 10.34 69.21 10.22C69.09 10.1 68.85 9.98 68.6 9.86H67.14C66.9 9.86 66.78 10.1 66.53 10.22C66.41 10.34 66.29 10.58 66.17 10.83C66.17 11.07 66.05 11.44 66.05 11.8V12.65C66.05 12.89 66.29 13.01 66.41 13.26C66.53 13.38 66.77 13.5 66.9 13.62H68.48V14.11C68.48 14.11 68.48 14.35 68.36 14.35C68.36 14.35 68.24 14.35 68.12 14.47H66.66V15.32H68C68.49 15.32 68.97 15.2 69.22 14.96C69.47 14.72 69.58 14.35 69.58 13.74V13.5H70.92C70.92 13.5 71.04 13.5 71.16 13.38C71.16 13.38 71.28 13.26 71.4 13.14C71.52 13.38 71.76 13.5 72.01 13.5H73.59C73.83 13.5 73.95 13.38 74.2 13.14C74.32 13.02 74.44 12.78 74.56 12.53C74.56 12.29 74.68 12.04 74.68 11.68C74.68 11.32 74.68 11.07 74.56 10.71C74.44 10.35 74.32 10.22 74.2 10.1L74.32 10.22H74.31ZM68.72 12.65H67.99C67.75 12.65 67.5 12.65 67.38 12.41C67.26 12.29 67.14 12.05 67.14 11.68C67.14 11.31 67.14 11.07 67.38 10.83C67.5 10.59 67.74 10.59 67.99 10.59C68.24 10.59 68.48 10.59 68.6 10.83C68.72 10.95 68.84 11.32 68.84 11.56V12.53L68.72 12.65ZM73.58 12.53C73.46 12.65 73.22 12.77 72.97 12.77C72.72 12.77 72.48 12.77 72.36 12.53C72.24 12.41 72.12 12.04 72.12 11.68C72.12 11.32 72.12 11.07 72.36 10.95C72.48 10.83 72.72 10.71 72.97 10.71C73.58 10.71 73.82 11.07 73.82 11.8C73.82 12.53 73.82 12.41 73.58 12.65V12.53Z" fill="black"/>
<path d="M67.99 8.64C67.99 8.64 67.87 8.64 67.75 8.52V8.03H68.36C68.36 8.03 68.48 8.03 68.6 8.15L68.96 7.79C68.96 7.67 68.84 7.55 68.6 7.55H67.63C67.51 7.55 67.39 7.55 67.27 7.79C67.27 7.79 67.15 7.91 67.15 8.03V8.76H66.79V9.25H68.86V8.76L68.98 8.64H67.99Z" fill="black"/>
</svg>
