<?xml version="1.0" encoding="UTF-8"?>
<svg id="Layer_1" data-name="Layer 1" xmlns="http://www.w3.org/2000/svg" viewBox="0 0 99 26.97">
  <path d="M89,8.66h1.85c.52,0,.82-.41.82-.93V3.61h.82v5.05h1.85c.41,0,.72-.31.82-.82,0-.72,0-1.34.1-2.06v-2.06h.93v4.43c0,1.03-.82,1.55-1.96,1.55h-18.55c-.41,0-.62,0-.93.41-1.03,1.03-2.78,1.13-3.81,0-.31-.31-.62-.41-.93-.41h-4.64c-.72,1.65-1.55,2.27-2.78,2.06v-.72c1.44-.31,1.85-.62,1.85-2.58V3.61h.93v5.05h4.84c-.21-1.13,0-2.27.82-3.19.52-.52,1.24-.72,1.96-.72,1.96,0,2.78,1.24,2.68,3.92h2.37c.62,0,.93-.31,1.03-.93V3.61h.93v5.05h2.47c.62,0,.93-.52.93-1.13v-3.92h.93v5.05h2.78c.62,0,1.03-.62,1.03-1.34v-3.71h.82v5.05h0ZM74.58,7.83c0-.31,0-.72-.21-1.13-.21-.62-.62-1.03-1.24-1.13-.72,0-1.34.21-1.65.82-.41.82-.41,1.75,0,2.58.21.62.82.93,1.55.82.72,0,1.13-.41,1.34-1.13,0-.31.1-.62.21-1.03h0v.21Z"/>
  <path d="M.38,5.77h.82v1.85c.21,2.16,1.65,3.4,3.71,3.3,1.34-.1,2.58-1.13,2.89-2.47.31-1.34-.21-2.06-1.65-2.37v-.72c1.24-.41,2.27.52,2.78,1.44.21.31.31.72.52,1.03.31.72.93,1.03,1.65,1.03h19.37c1.24,0,1.55-.31,1.55-1.55v-3.5h.82v4.33c0,1.13-.82,1.65-1.85,1.65H11c-1.13,0-1.85-.52-2.47-1.75-.21,1.55-.93,2.58-2.06,3.3-1.03.62-2.06.72-3.19.41C1,11.23-.34,8.76.07,5.87l.31-.1Z"/>
  <path d="M50.36,7.93c-.72,2.78-2.68,4.22-4.95,3.71-2.47-.52-3.92-2.89-3.61-5.98h.82c0,.72,0,1.44.21,2.16.21,1.55,1.34,2.68,2.68,2.89,1.55.21,2.99-.62,3.61-1.96.62-1.44.1-2.58-1.44-2.89v-.72c1.13-.41,2.27.41,2.78,1.24.21.41.41.82.62,1.24.31.62.72.93,1.44.93h2.58c-.62-1.13-.72-2.27-.31-3.4.41-1.13,1.44-1.75,2.68-1.65,1.24,0,2.06.72,2.47,1.85.31.93.31,1.75-.1,2.68-.52,1.03-1.24,1.55-2.37,1.55h-4.64c-1.13,0-1.96-.52-2.47-1.65h0ZM59.22,6.6h0v-.62c-.1-.93-.72-1.55-1.55-1.55-.93,0-1.65.52-1.75,1.44v1.65c.1.72.72,1.13,1.34,1.24.82,0,1.44-.21,1.75-.93.21-.41.21-.82.31-1.34h0l-.1.1Z"/>
  <path d="M27.28,23.8h-5.05c.21,1.55,1.85,1.85,3.5.72.41.31.82.72,1.13,1.03-1.03,1.34-3.09,1.75-4.64,1.13-1.75-.82-2.58-2.68-2.06-4.64.52-1.75,2.06-2.89,3.81-2.78,1.75.1,3.09,1.34,3.3,3.19,0,.41,0,.82,0,1.34ZM25.22,22.36c-.1-1.03-.72-1.55-1.55-1.55s-1.44.62-1.44,1.55h2.99Z"/>
  <path d="M49.95,19.37h2.06v.72c.62-.31,1.13-.72,1.75-.82,1.34-.31,2.78.62,2.78,1.85.1,1.85,0,3.71,0,5.56h-2.06v-4.02c0-.93-.31-1.44-.93-1.55-.93-.21-1.65.31-1.65,1.44v4.12h-2.06v-7.32h.1Z"/>
  <path d="M8.94,26.69v-4.43c-.1-.93-.52-1.24-1.34-1.24-.72,0-1.13.52-1.13,1.34v4.22h-2.06v-7.32h2.06v.72c.52-.31,1.13-.72,1.75-.82,1.34-.31,2.78.62,2.78,1.96.1,1.85,0,3.71,0,5.56,0,0-2.06,0-2.06,0Z"/>
  <path d="M28.31,25.76c.31-.52.62-.93.82-1.34.62.21,1.24.52,1.85.72h.82c.21,0,.52-.21.52-.41s-.21-.52-.41-.62c-.41-.21-.93-.31-1.34-.52-.52-.31-1.13-.52-1.55-.93-.93-1.13-.41-2.99,1.03-3.4,1.34-.41,2.58-.21,3.71.52.1,0,.21.41.1.52-.21.41-.41.72-.62,1.03-.41-.21-.82-.31-1.34-.52h-.31c-.41,0-.93-.21-1.13.31-.21.62.41.62.72.82.52.21,1.03.41,1.55.62.82.41,1.34,1.03,1.34,1.96,0,1.03-.52,1.75-1.55,2.06-1.65.52-3.09.1-4.53-.93h0l.31.1Z"/>
  <path d="M15.84,24.22c.52-1.55,1.03-2.89,1.44-4.22.21-.62.41-.72,1.03-.72h1.44c-.31.93-.62,1.65-.93,2.47-.62,1.55-1.24,2.99-1.75,4.53-.1.31-.31.52-.72.52q-1.44,0-1.96-1.34c-.72-1.85-1.44-3.81-2.27-5.67,0-.1,0-.31-.21-.52h2.06c.1,0,.31.21.31.41.52,1.44.93,2.89,1.55,4.43h0v.1Z"/>
  <path d="M81.69,20.82c2.16-1.75,3.92-1.85,5.26-.21,1.24,1.34,1.13,4.12-.1,5.36-1.44,1.44-3.4,1.34-5.15-.41v1.13h-1.03v-10.1h1.03v4.22h0ZM86.74,23.08c0-1.65-1.13-2.78-2.47-2.78-1.44,0-2.68,1.34-2.58,2.89,0,1.55,1.24,2.68,2.68,2.68s2.47-1.13,2.47-2.78h-.1Z"/>
  <path d="M39.95,24.83v1.34c0,.1-.21.31-.31.41-.72.31-1.55.41-2.37.21-.62-.21-1.13-.82-1.13-1.65v-3.81h-.82v-1.75h.82v-1.85h2.16v1.85h1.75v1.75h-1.65v3.4c0,.21.41.41.62.52h1.03l-.1-.41Z"/>
  <path d="M69.73,26.69h-1.03v-1.24c-.52.41-.93.82-1.44,1.13-1.55.72-3.4,0-4.22-1.55-.93-1.85-.52-4.74,1.96-5.56,1.24-.41,2.58,0,3.4,1.03,0,0,0,.21.1.31h.21v-4.12h1.03v10.1h0v-.1ZM68.7,23.08c0-1.75-1.55-2.99-3.09-2.68-1.03.21-1.65.82-1.85,1.75-.31,1.03-.21,2.16.62,2.99.72.82,1.75,1.03,2.68.62,1.03-.41,1.75-1.44,1.75-2.68h-.1Z"/>
  <path d="M90.14,20.71c0-.1-.1-.41-.31-.72,1.03-.52,2.06-.72,3.19-.62,1.55.21,2.37.93,2.47,2.47v4.74h-1.03v-.93c-.82.93-1.85,1.24-2.99,1.13-1.34-.21-2.16-.93-2.16-2.16s.82-2.16,2.16-2.27h2.99c.21-.72-.41-1.96-1.65-1.96-.82,0-1.65.21-2.68.31h0ZM92.4,23.08c-.31,0-.93.21-1.34.41-.72.41-.82,1.44-.21,1.96.72.62,1.55.62,2.37.31.72-.21,1.24-.82,1.34-1.65,0-.72,0-.82-.62-.93-.41,0-.82-.1-1.44-.21l-.1.1Z"/>
  <path d="M78.18,26.69h-1.03v-.93c-.1,0-.21.1-.31.21-.72.93-2.27,1.13-3.3.72s-1.55-1.34-1.55-2.68v-4.43h1.03v4.33c0,1.13.62,1.96,1.65,2.06,1.13.1,2.06-.52,2.37-1.65v-4.74h1.03v7.11h.1Z"/>
  <path d="M45.83,26.69v-7.32h2.06v7.32h-2.06Z"/>
  <path d="M.18,26.69v-7.32h2.06v7.32H.18Z"/>
  <path d="M33.98,9.58v-.93h4.84c.31-2.37-.82-3.92-3.3-4.33v-.72c1.24-.31,2.99.52,3.61,1.75.72,1.34.82,2.68.82,4.12h-5.87l-.1.1Z"/>
  <path d="M99,1.03v8.55h-.93V1.03h.93Z"/>
  <path d="M97.97,19.58h1.03v7.11h-1.03v-7.11Z"/>
  <path d="M47.89,18.45h-2.16v-1.75h2.16v1.75Z"/>
  <path d="M.07,16.59h2.16v1.75H.07v-1.75Z"/>
  <path d="M97.87,17.93v-1.13h1.13v1.13h-1.13Z"/>
  <path d="M82.62,2.58h-.82v-1.13h.82v1.13Z"/>
  <path d="M78.18,0h.93v1.03h-.93V0Z"/>
  <path d="M33.26,11.64h-.82v-1.13h.82v1.13Z"/>
  <path d="M83.44,2.58v-1.03h.93v1.03h-.93Z"/>
  <path d="M79.11,1.55h.93v1.03h-.93v-1.03Z"/>
  <path d="M77.36,1.55h.93v1.03h-.93v-1.03Z"/>
  <path d="M56.96,1.55h.93v1.03h-.93v-1.03Z"/>
  <path d="M46.65,13.91v-1.03h.93v1.03h-.93Z"/>
  <path d="M44.9,12.78h.93v1.03h-.93v-1.03Z"/>
  <path d="M6.05,12.78v1.03h-.93v-1.03h.93Z"/>
  <path d="M4.4,12.78v1.03h-.93v-1.03h.93Z"/>
</svg>