<svg width="80" height="31" viewBox="0 0 80 31" fill="none" xmlns="http://www.w3.org/2000/svg">
<path d="M10.563 0H0V26.453H10.563C11.9617 26.4639 13.3077 25.9201 14.3062 24.9405C15.3046 23.961 15.8742 22.6256 15.89 21.227V5.307C15.89 3.90123 15.3322 2.55288 14.3392 1.55792C13.3461 0.562947 11.9988 0.0026489 10.593 0M5.276 21.227V5.307H7.935C8.28048 5.30568 8.62281 5.37275 8.94225 5.50435C9.26169 5.63595 9.55193 5.82948 9.79622 6.07378C10.0405 6.31807 10.234 6.6083 10.3656 6.92775C10.4972 7.24719 10.5643 7.58952 10.563 7.935V18.558C10.5671 18.907 10.5019 19.2534 10.3712 19.577C10.2404 19.9007 10.0468 20.1952 9.80139 20.4434C9.55602 20.6917 9.26382 20.8888 8.94173 21.0233C8.61964 21.1578 8.27405 21.227 7.925 21.227H5.276Z" fill="#0090D7"/>
<path d="M74.2129 26.453V2.648C74.2102 1.9518 74.4829 1.28276 74.9714 0.786731C75.4599 0.290705 76.1247 0.00791229 76.8209 0L79.4789 0V23.865C79.4789 24.5656 79.2013 25.2376 78.7069 25.7339C78.2124 26.2302 77.5415 26.5104 76.8409 26.513H74.2129V26.453Z" fill="#0090D7"/>
<path d="M51.5509 14.4239C50.3345 15.6391 48.8002 16.4868 47.1239 16.8699C47.3943 17.1974 47.582 17.5851 47.6711 18.0004C47.7601 18.4157 47.748 18.8463 47.6357 19.2559C47.5234 19.6655 47.3142 20.042 47.0258 20.3538C46.7375 20.6656 46.3783 20.9035 45.9787 21.0473C45.5791 21.1911 45.1507 21.2367 44.7298 21.1802C44.3088 21.1237 43.9077 20.9668 43.5601 20.7227C43.2125 20.4787 42.9288 20.1545 42.7328 19.7778C42.5368 19.401 42.4343 18.9826 42.4339 18.5579V17.0919H37.0859V23.8639C37.1073 24.5574 37.3978 25.2154 37.8961 25.6984C38.3943 26.1813 39.0611 26.4512 39.7549 26.4509H45.0409C46.4745 26.4522 47.8819 26.0661 49.1141 25.3334C50.3463 24.6007 51.3576 23.5486 52.0411 22.2885C52.7246 21.0283 53.0548 19.6068 52.9969 18.1743C52.9389 16.7419 52.495 15.3517 51.7119 14.1509L51.5119 14.3509" fill="#0090D7"/>
<path d="M42.3959 7.955C42.3951 7.46111 42.5313 6.97668 42.7894 6.55561C43.0476 6.13454 43.4174 5.79335 43.8579 5.57V0H37.0859V9.411H42.3859L42.3959 7.955Z" fill="#0090D7"/>
<path d="M23.8341 10.472V1.91948e-05H21.2261C20.5255 -0.00264643 19.8525 0.272421 19.3543 0.764985C18.8561 1.25755 18.5734 1.92746 18.5681 2.62802V9.42802H21.2261C22.2072 9.40454 23.1583 9.76764 23.8741 10.439" fill="#0090D7"/>
<path d="M34.4481 9.411V2.648C34.4426 1.94551 34.1603 1.27353 33.6625 0.777806C33.1648 0.282086 32.4916 0.0026104 31.7891 0L29.1411 0V10.472C29.8599 9.80529 30.8089 9.44294 31.7891 9.461L34.4481 9.411Z" fill="#0090D7"/>
<path d="M55.6951 26.453H58.3331C58.682 26.4549 59.0278 26.3877 59.3507 26.2555C59.6736 26.1232 59.9672 25.9285 60.2145 25.6824C60.4619 25.4363 60.6582 25.1438 60.7922 24.8216C60.9261 24.4994 60.9951 24.1539 60.9951 23.805V17.093H55.6951V26.453Z" fill="#0090D7"/>
<path d="M60.9511 9.411V6.489V2.648C60.9507 1.66166 61.3307 0.713171 62.0121 0L60.9511 0C59.5524 0.0134415 58.2156 0.578499 57.2314 1.5723C56.2471 2.5661 55.695 3.90829 55.6951 5.307V10.472C56.4107 9.80672 57.3561 9.44439 58.3331 9.461L60.9511 9.411Z" fill="#0090D7"/>
<path d="M66.3391 17.093H66.2581V23.865C66.2578 24.5688 66.5366 25.2439 67.0334 25.7424C67.5302 26.2408 68.2043 26.5219 68.9081 26.524H71.5561V14.394C70.9729 15.2421 70.1949 15.938 69.2874 16.4235C68.3799 16.9089 67.3692 17.1697 66.3401 17.184" fill="#0090D7"/>
<path d="M45.0411 0V5.307C45.7274 5.3061 46.3874 5.57071 46.8831 6.04543C47.3787 6.52015 47.6716 7.16819 47.7002 7.85391C47.7289 8.53962 47.4913 9.20985 47.037 9.72431C46.5827 10.2388 45.9471 10.5576 45.2631 10.614H31.7901C31.4428 10.6127 31.0987 10.6799 30.7775 10.8119C30.4563 10.9439 30.1643 11.138 29.9183 11.3831C29.6722 11.6282 29.477 11.9195 29.3438 12.2402C29.2106 12.5609 29.1421 12.9047 29.1421 13.252V21.227H26.4531C25.7508 21.227 25.0773 20.948 24.5807 20.4514C24.0841 19.9548 23.8051 19.2813 23.8051 18.579V13.252C23.8051 12.5524 23.5271 11.8814 23.0324 11.3867C22.5377 10.8919 21.8667 10.614 21.1671 10.614H18.5281V21.227C18.5441 22.6239 19.1103 23.9581 20.1039 24.9402C21.0974 25.9223 22.4381 26.4731 23.8351 26.473H29.1421C29.839 26.473 30.5291 26.3357 31.173 26.069C31.8169 25.8023 32.4019 25.4114 32.8947 24.9186C33.3875 24.4258 33.7784 23.8408 34.0451 23.1969C34.3118 22.553 34.4491 21.8629 34.4491 21.166V15.859H45.0411C47.023 15.7242 48.883 14.8537 50.2563 13.4183C51.6295 11.9829 52.4167 10.0861 52.4635 8.10013C52.5104 6.11418 51.8134 4.18241 50.5094 2.68383C49.2054 1.18525 47.3884 0.228035 45.4151 0L45.0411 0Z" fill="#BA2C87"/>
<path d="M43.606 17.052V18.518C43.6073 18.8876 43.7547 19.2416 44.016 19.503C44.2773 19.7643 44.6314 19.9117 45.001 19.913C45.3829 19.9198 45.7526 19.7782 46.0323 19.5181C46.3121 19.2579 46.4801 18.8994 46.501 18.518C46.519 18.1499 46.3912 17.7895 46.1452 17.515C45.8992 17.2406 45.5549 17.0742 45.187 17.052H43.606Z" fill="#BA2C87"/>
<path d="M26.918 27.544V28.929C26.916 29.2057 26.9964 29.4768 27.1489 29.7077C27.3015 29.9387 27.5192 30.119 27.7745 30.2258C28.0298 30.3327 28.3111 30.3611 28.5827 30.3076C28.8542 30.2541 29.1037 30.1211 29.2994 29.9254C29.4951 29.7297 29.6281 29.4802 29.6816 29.2087C29.7352 28.9371 29.7067 28.6558 29.5999 28.4005C29.493 28.1452 29.3127 27.9274 29.0818 27.7749C28.8508 27.6224 28.5798 27.542 28.303 27.544H26.918Z" fill="#BA2C87"/>
<path d="M22.9959 27.5439V28.9289C22.9939 29.2053 23.074 29.476 23.2261 29.7067C23.3782 29.9374 23.5954 30.1177 23.8501 30.2249C24.1048 30.332 24.3856 30.361 24.6569 30.3083C24.9281 30.2557 25.1776 30.1236 25.3737 29.9289C25.5698 29.7342 25.7037 29.4857 25.7583 29.2148C25.8129 28.9439 25.7859 28.6629 25.6806 28.4074C25.5753 28.152 25.3966 27.9335 25.1669 27.7798C24.9373 27.626 24.6672 27.544 24.3909 27.5439H22.9959Z" fill="#BA2C87"/>
<path d="M55.6951 13.252C55.6951 12.5524 55.973 11.8814 56.4677 11.3867C56.9624 10.8919 57.6334 10.614 58.3331 10.614H63.6801C64.3838 10.6649 65.079 10.4342 65.6126 9.97257C66.1462 9.51095 66.4746 8.85625 66.5256 8.1525C66.5765 7.44875 66.3458 6.75359 65.8841 6.21996C65.4225 5.68632 64.7678 5.35792 64.0641 5.307H62.2451V2.648C62.2446 1.96236 62.5101 1.30327 62.9857 0.809395C63.4613 0.315522 64.1099 0.0253747 64.7951 0L66.2611 0C67.6643 -4.89553e-06 69.0103 0.556464 70.0038 1.54738C70.9973 2.5383 71.5574 3.88278 71.5611 5.286V10.613C71.5592 12.0181 71.0002 13.3651 70.0067 14.3586C69.0131 15.3522 67.6661 15.9111 66.2611 15.913H55.6951V13.252Z" fill="#BA2C87"/>
</svg>
